<mxfile host="app.diagrams.net" agent="Mozilla/5.0 (X11; Linux x86_64; rv:140.0) Gecko/20100101 Firefox/140.0" version="28.0.9">
  <diagram name="Page-1" id="E0xHcOXO7ROCn3cZHOuz">
    <mxGraphModel dx="937" dy="597" grid="1" gridSize="10" guides="1" tooltips="1" connect="1" arrows="1" fold="1" page="1" pageScale="1" pageWidth="850" pageHeight="1100" math="0" shadow="0">
      <root>
        <mxCell id="0" />
        <mxCell id="1" parent="0" />
        <mxCell id="F4VbvwQIKq2nN-VzhIap-1" value="&lt;pre&gt;&lt;font style=&quot;font-size: 17px; color: light-dark(rgb(180, 101, 4), rgb(255, 31, 87));&quot;&gt;CHR0&lt;/font&gt;&lt;/pre&gt;" style="rounded=1;whiteSpace=wrap;html=1;strokeColor=light-dark(#B46504,#FF1F57);" vertex="1" parent="1">
          <mxGeometry x="310" y="260" width="100" height="50" as="geometry" />
        </mxCell>
        <mxCell id="F4VbvwQIKq2nN-VzhIap-2" value="&lt;span style=&quot;color: light-dark(rgb(255, 255, 255), rgb(255, 134, 44));&quot;&gt;GuestLXC&lt;/span&gt;" style="rounded=1;whiteSpace=wrap;html=1;strokeColor=light-dark(#FFFFFF,#FF862C);" vertex="1" parent="1">
          <mxGeometry x="190" y="370" width="80" height="40" as="geometry" />
        </mxCell>
        <mxCell id="F4VbvwQIKq2nN-VzhIap-3" value="&lt;span style=&quot;color: light-dark(rgb(180, 101, 4), rgb(255, 65, 73));&quot;&gt;CorpLXC&lt;/span&gt;" style="rounded=1;whiteSpace=wrap;html=1;strokeColor=light-dark(#B46504,#FF4149);" vertex="1" parent="1">
          <mxGeometry x="450" y="370" width="80" height="40" as="geometry" />
        </mxCell>
        <mxCell id="F4VbvwQIKq2nN-VzhIap-4" value="DHCP Client on etherWAN" style="text;html=1;align=center;verticalAlign=middle;whiteSpace=wrap;rounded=0;" vertex="1" parent="1">
          <mxGeometry x="370" y="238" width="90" height="20" as="geometry" />
        </mxCell>
        <mxCell id="F4VbvwQIKq2nN-VzhIap-5" value="&lt;pre&gt;vmbr0&lt;/pre&gt;" style="rounded=1;whiteSpace=wrap;html=1;strokeColor=light-dark(#000000,#000099);" vertex="1" parent="1">
          <mxGeometry x="320" y="150" width="80" height="40" as="geometry" />
        </mxCell>
        <mxCell id="F4VbvwQIKq2nN-VzhIap-6" value="" style="endArrow=none;html=1;rounded=0;entryX=0.5;entryY=1;entryDx=0;entryDy=0;exitX=0.5;exitY=0;exitDx=0;exitDy=0;strokeColor=light-dark(#000000,#000099);" edge="1" parent="1" source="F4VbvwQIKq2nN-VzhIap-1" target="F4VbvwQIKq2nN-VzhIap-5">
          <mxGeometry width="50" height="50" relative="1" as="geometry">
            <mxPoint x="370" y="350" as="sourcePoint" />
            <mxPoint x="420" y="300" as="targetPoint" />
          </mxGeometry>
        </mxCell>
        <mxCell id="F4VbvwQIKq2nN-VzhIap-7" value="vmbr0 tags this traffic as VLAN 40" style="text;html=1;align=center;verticalAlign=middle;whiteSpace=wrap;rounded=0;" vertex="1" parent="1">
          <mxGeometry x="230" y="190" width="100" height="30" as="geometry" />
        </mxCell>
        <mxCell id="F4VbvwQIKq2nN-VzhIap-8" value="" style="endArrow=classic;html=1;rounded=0;exitX=1;exitY=0.75;exitDx=0;exitDy=0;" edge="1" parent="1" source="F4VbvwQIKq2nN-VzhIap-7">
          <mxGeometry width="50" height="50" relative="1" as="geometry">
            <mxPoint x="370" y="310" as="sourcePoint" />
            <mxPoint x="360" y="230" as="targetPoint" />
          </mxGeometry>
        </mxCell>
        <mxCell id="F4VbvwQIKq2nN-VzhIap-9" value="" style="endArrow=none;html=1;rounded=0;exitX=0.75;exitY=0;exitDx=0;exitDy=0;entryX=0;entryY=0.75;entryDx=0;entryDy=0;strokeColor=light-dark(#FFFFFF,#FF862C);" edge="1" parent="1" source="F4VbvwQIKq2nN-VzhIap-2" target="F4VbvwQIKq2nN-VzhIap-1">
          <mxGeometry width="50" height="50" relative="1" as="geometry">
            <mxPoint x="370" y="310" as="sourcePoint" />
            <mxPoint x="420" y="260" as="targetPoint" />
          </mxGeometry>
        </mxCell>
        <mxCell id="F4VbvwQIKq2nN-VzhIap-10" value="" style="endArrow=none;html=1;rounded=0;entryX=0.25;entryY=0;entryDx=0;entryDy=0;exitX=1;exitY=0.75;exitDx=0;exitDy=0;strokeColor=light-dark(#B46504,#FF4149);" edge="1" parent="1" source="F4VbvwQIKq2nN-VzhIap-1" target="F4VbvwQIKq2nN-VzhIap-3">
          <mxGeometry width="50" height="50" relative="1" as="geometry">
            <mxPoint x="370" y="310" as="sourcePoint" />
            <mxPoint x="420" y="260" as="targetPoint" />
          </mxGeometry>
        </mxCell>
        <mxCell id="F4VbvwQIKq2nN-VzhIap-11" value="&lt;pre&gt;&lt;font style=&quot;font-size: 10px;&quot;&gt;192.168.88.1/24&lt;/font&gt;&lt;/pre&gt;" style="text;html=1;align=center;verticalAlign=middle;whiteSpace=wrap;rounded=0;" vertex="1" parent="1">
          <mxGeometry x="210" y="290" width="100" height="20" as="geometry" />
        </mxCell>
        <mxCell id="F4VbvwQIKq2nN-VzhIap-13" value="&lt;pre&gt;&lt;font style=&quot;font-size: 10px;&quot;&gt;172.16.0.1/24&lt;/font&gt;&lt;/pre&gt;" style="text;html=1;align=center;verticalAlign=middle;whiteSpace=wrap;rounded=0;" vertex="1" parent="1">
          <mxGeometry x="400" y="290" width="100" height="20" as="geometry" />
        </mxCell>
      </root>
    </mxGraphModel>
  </diagram>
</mxfile>
